<svg xmlns="http://www.w3.org/2000/svg" width="19" height="14" shape-rendering="geometricPrecision" text-rendering="geometricPrecision" image-rendering="optimizeQuality" fill-rule="evenodd" clip-rule="evenodd" viewBox="0 0 44.23 32.49"><path fill="#2B2A29" fill-rule="nonzero" d="M22.12 0c5.97 0 11.39 1.69 15.33 4.43 4.16 2.89 6.74 7.02 6.78 11.7v.22c-.04 4.69-2.62 8.82-6.78 11.7-3.94 2.74-9.36 4.44-15.33 4.44-5.98 0-11.4-1.7-15.34-4.44C2.62 25.17.04 21.04 0 16.35v-.22c.04-4.68 2.62-8.81 6.78-11.7C10.72 1.69 16.14 0 22.12 0zm14.57 7.27c-3.71-2.58-8.86-4.18-14.57-4.18-5.72 0-10.87 1.6-14.58 4.18-3.47 2.41-5.62 5.59-5.62 8.97 0 3.38 2.15 6.56 5.62 8.97 3.71 2.58 8.86 4.18 14.58 4.18 5.71 0 10.86-1.6 14.57-4.18 3.47-2.41 5.62-5.59 5.62-8.97 0-3.38-2.15-6.56-5.62-8.97z"/><path fill="#1F1B20" d="M16.68 4.38c1.43.59 2.53 4.74 2.53 9.77 0 5.44-1.29 9.85-2.88 9.85-1.58 0-2.87-4.41-2.87-9.85 0-2.05.19-3.96.5-5.54-.93 2.21-1.46 4.83-1.46 7.63 0 7.9 4.24 14.3 9.47 14.3s9.47-6.4 9.47-14.3c0-7.89-4.24-14.29-9.47-14.29-1.96 0-3.78.89-5.29 2.43z"/></svg>